Format                           : mpeg4
Format/Info                      : Audio Video Interleave
Format profile                   : OpenDML
File size                        : 2157 MiB
Duration                         : 2h 33mn
Overall bit rate                 : 1 341 Kbps
Writing application              : VirtualDubMod 1.5.10.2 (build 2542/release)

Video
Format                           : xvid
Codec ID                         : xvid
Duration                         : 1h 33mn
Bit rate                         : 1 209 Kbps
Width                            : 720 pixels
Height                           : 320 pixels
Display aspect ratio             : 2.25:1
Frame rate                       : 25.000 fps
Resolution                       : 24 bits
Bits/(Pixel*Frame)               : 0.210
Stream size                      : 642.6 MiB (90%)

Audio
ID                               : 1
Format                           : MPEG Audio
Format version                   : Version 1
Format profile                   : Layer 3
Codec ID                         : 55
Codec ID/Hint                    : MP3
Duration                         : 2h 33mn
Bit rate mode                    : Constant
Bit rate                         : 128 Kbps
Channel(s)                       : 2 channels
Sampling rate                    : 48.0 KHz
Resolution                       : 16 bits
Stream size                      : 71.4 MiB (10%)
Alignment                        : Aligned on interleaves
Interleave, duration             : 639 ms (15.98 video frames)
Interleave, preload duration     : 216 ms
Writing library                  : LAME3.96.1 


one of the best copies of the movie so far! i have checked with other dvdscreeners and this one is the best ive seen!  :)